# xmcd
#
# Track frame offsets:
#	150
#	19915
#	35344
#	62146
#	76158
#	97189
#	111965
#	129412
#	146838
#	169273
#	193906
#	205332
#
# Disc length: 2966 seconds
# Revision: 0
# Processed by: cddbd v1.5.2PL0 Copyright (c) Steve Scherf et al.
# Submitted via: dBpowerAMP V12.0
#
DISCID=b00b940c
DTITLE=Ms Zeno and Guy Venable - Ms Zeno and The White Guy
DYEAR=1900
DGENRE=Blues
TTITLE0=Father Time
TTITLE1=Uha Uha Daddy
TTITLE2=Bad Day
TTITLE3=Heartache
TTITLE4=Midnight Blues
TTITLE5=Country and  Blues
TTITLE6=Home To You
TTITLE7=Roll Me Easy
TTITLE8=Have You Heard
TTITLE9=Love Denied
TTITLE10=Lies
TTITLE11=Louisiana Mojo
EXTD=
EXTT0=
EXTT1=
EXTT2=
EXTT3=
EXTT4=
EXTT5=
EXTT6=
EXTT7=
EXTT8=
EXTT9=
EXTT10=
EXTT11=
PLAYORDER=
